<svg width="15" height="19" viewBox="0 0 15 19" fill="none" xmlns="http://www.w3.org/2000/svg">
<path d="M4.48568 7.8665H11.1523M4.48568 14.5332H11.1523M4.48568 11.1998H7.81901M1.15234 17.3665V1.69983C1.15234 1.56722 1.20502 1.44004 1.29879 1.34628C1.39256 1.25251 1.51974 1.19983 1.65234 1.19983H11.3623C11.4949 1.19995 11.622 1.2527 11.7157 1.3465L14.339 3.96983C14.3857 4.01641 14.4226 4.07176 14.4478 4.13268C14.473 4.19361 14.4858 4.25891 14.4857 4.32483V17.3665C14.4857 17.4322 14.4727 17.4972 14.4476 17.5578C14.4225 17.6185 14.3857 17.6736 14.3392 17.72C14.2928 17.7665 14.2377 17.8033 14.177 17.8284C14.1164 17.8536 14.0513 17.8665 13.9857 17.8665H1.65234C1.58668 17.8665 1.52166 17.8536 1.461 17.8284C1.40034 17.8033 1.34522 17.7665 1.29879 17.72C1.25236 17.6736 1.21553 17.6185 1.1904 17.5578C1.16528 17.4972 1.15234 17.4322 1.15234 17.3665Z" stroke="black" stroke-linecap="round" stroke-linejoin="round"/>
<path d="M11.1523 1.19983V4.03316C11.1523 4.16577 11.205 4.29295 11.2988 4.38672C11.3926 4.48048 11.5197 4.53316 11.6523 4.53316H14.4857" stroke="black" stroke-linecap="round" stroke-linejoin="round"/>
</svg>
