<svg width="19" height="18" viewBox="0 0 19 18" fill="none" xmlns="http://www.w3.org/2000/svg">
<path d="M9.95597 0.876633L16.3898 7.0333H14.0362L9.42318 2.61913L4.67318 7.16497V15.3666H8.63151V17.0333H3.88151C3.67155 17.0333 3.47018 16.9455 3.32172 16.7892C3.17325 16.6329 3.08984 16.421 3.08984 16.2V8.69997H0.714844L8.89039 0.876633C9.03614 0.737031 9.22612 0.659668 9.42318 0.659668C9.62024 0.659668 9.81021 0.737031 9.95597 0.876633ZM11.0065 8.69997H18.1315V14.5333H11.0065V8.69997ZM12.5898 10.3666V12.8666H16.5482V10.3666H12.5898ZM18.9232 17.0333H10.2148V15.3666H18.9232V17.0333Z" fill="black"/>
</svg>
