<svg width="16" height="17" viewBox="0 0 16 17" fill="none" xmlns="http://www.w3.org/2000/svg">
<path d="M7.82031 4.86645V5.19979M7.82031 4.86645C7.82031 3.80559 8.24174 2.78817 8.99189 2.03803C9.74203 1.28788 10.7594 0.866455 11.8203 0.866455H12.1536V5.19979C12.1536 6.34906 11.6971 7.45126 10.8844 8.26392C10.0718 9.07658 8.96958 9.53312 7.82031 9.53312M7.82031 4.86645C7.82031 3.80559 7.39889 2.78817 6.64874 2.03803C5.89859 1.28788 4.88118 0.866455 3.82031 0.866455H3.48698V5.19979C3.48698 6.34906 3.94353 7.45126 4.75618 8.26392C5.56884 9.07658 6.67104 9.53312 7.82031 9.53312M7.82031 9.53312V15.8665M7.82031 9.53312V15.5331M7.82031 16.1998H4.82031C3.75945 16.1998 2.74203 15.7784 1.99189 15.0282C1.24174 14.2781 0.820313 13.2607 0.820312 12.1998H3.82031C4.88118 12.1998 5.89859 12.6212 6.64874 13.3714C7.39889 14.1215 7.82031 15.1389 7.82031 16.1998ZM7.82031 16.1998H10.8203C11.8812 16.1998 12.8986 15.7784 13.6487 15.0282C14.3989 14.2781 14.8203 13.2607 14.8203 12.1998H11.8203C10.7594 12.1998 9.74203 12.6212 8.99189 13.3714C8.24174 14.1215 7.82031 15.1389 7.82031 16.1998Z" stroke="black"/>
</svg>
