<svg width="23" height="21" viewBox="0 0 23 21" fill="none" xmlns="http://www.w3.org/2000/svg">
<path d="M11.5156 14.5332C13.1725 14.5332 14.5156 13.1901 14.5156 11.5332C14.5156 9.87635 13.1725 8.5332 11.5156 8.5332C9.85877 8.5332 8.51562 9.87635 8.51562 11.5332C8.51562 13.1901 9.85877 14.5332 11.5156 14.5332Z" stroke="black" stroke-width="1.5"/>
<path d="M9.29362 19.5332H13.7376C16.8586 19.5332 18.4196 19.5332 19.5406 18.7982C20.0244 18.4814 20.4411 18.0723 20.7666 17.5942C21.5156 16.4942 21.5156 14.9613 21.5156 11.8973C21.5156 8.83325 21.5156 7.30025 20.7666 6.20025C20.4411 5.72224 20.0244 5.31311 19.5406 4.99625C18.8206 4.52325 17.9186 4.35425 16.5376 4.29425C15.8786 4.29425 15.3116 3.80425 15.1826 3.16925C15.084 2.70412 14.8279 2.28729 14.4575 1.9892C14.0871 1.69112 13.6251 1.53006 13.1496 1.53325H9.88163C8.89363 1.53325 8.04263 2.21825 7.84863 3.16925C7.71963 3.80425 7.15263 4.29425 6.49363 4.29425C5.11363 4.35425 4.21162 4.52425 3.49062 4.99625C3.00716 5.31321 2.5909 5.72234 2.26562 6.20025C1.51562 7.30025 1.51562 8.83225 1.51562 11.8973C1.51562 14.9623 1.51563 16.4932 2.26463 17.5942C2.58863 18.0702 3.00462 18.4792 3.49062 18.7982C4.61162 19.5332 6.17262 19.5332 9.29362 19.5332Z" stroke="black" stroke-width="1.5"/>
<path d="M18.5156 8.5332H17.5156" stroke="black" stroke-width="1.5" stroke-linecap="round"/>
</svg>
