<svg width="15" height="15" viewBox="0 0 15 15" fill="none" xmlns="http://www.w3.org/2000/svg">
<path d="M2.17578 0.0800781L1.87669 0.378766L1.12975 1.16964L0.847656 1.48633L1.06334 1.85533L2.17578 3.82408L2.32506 4.10533H3.88641L6.01141 6.33789C4.11272 8.35727 1.69713 10.9234 1.61213 11.014C0.779656 11.8948 0.778062 13.3382 1.62806 14.178C2.45841 15.0454 3.8115 15.0679 4.60041 14.178L4.61634 14.16L7.88672 10.6798L11.1741 14.1775L11.2235 14.2129C12.0576 15.0454 13.3841 15.0566 14.1624 14.1775V14.1606H14.1783C14.9922 13.2791 15.0007 11.8465 14.1624 11.0134L14.1454 10.9965L11.3733 8.07827C13.2385 7.89377 14.6995 6.22595 14.7266 4.21108H14.743C14.7452 4.19983 14.743 4.18689 14.743 4.17564V4.1582C14.7951 3.50795 14.6623 2.88583 14.3446 2.34752L13.9802 1.7507L11.5061 4.3697L10.7592 3.54339L13.2826 0.871516L12.5522 0.555391C12.0863 0.337888 11.5833 0.223974 11.0742 0.220703C9.03209 0.220703 7.35547 1.99595 7.35547 4.1582C7.35547 4.39333 7.40328 4.59752 7.43834 4.80845C7.20619 5.05483 7.03194 5.25677 6.75781 5.54702L4.64928 3.31445V1.64439L4.38366 1.48633L2.52428 0.308453L2.17578 0.0800781ZM11.0742 1.3457C11.1486 1.3457 11.2007 1.39183 11.2734 1.39858L9.26478 3.52539L9.62975 3.92983L11.1242 5.56445L11.4891 5.96889L13.5977 3.73633C13.6083 3.8657 13.6954 3.9602 13.6805 4.10533V4.1582C13.6805 5.70733 12.4873 6.9707 11.0243 6.9707C10.8293 6.9707 10.5929 6.92233 10.3273 6.86495L10.0447 6.81264L9.84544 7.02358L3.85294 13.3866H3.83594V13.4046C3.45875 13.8416 2.79841 13.8523 2.35853 13.3866V13.3691H2.34153C1.92875 12.9698 1.91866 12.2706 2.35853 11.8048C2.55987 11.5911 6.45872 7.42745 8.36803 5.40639L8.58425 5.17802L8.50084 4.86133C8.44999 4.63068 8.42222 4.39501 8.41797 4.1582C8.41797 2.60908 9.61116 1.3457 11.0742 1.3457ZM2.34153 1.48633L3.58678 2.2952V2.8577L3.47097 2.98033H2.93972L2.17578 1.66239L2.34153 1.48633ZM10.1111 8.32408L13.4154 11.8048V11.8223H13.4314C13.8447 12.2216 13.8548 12.9208 13.4154 13.3866H13.3984V13.4046C13.0212 13.8416 12.3609 13.8523 11.921 13.3866L8.63366 9.88895L10.1111 8.32408Z" fill="black"/>
</svg>
