<svg width="19" height="19" viewBox="0 0 19 19" fill="none" xmlns="http://www.w3.org/2000/svg">
<path d="M6.92831 9.29117L9.21231 7.00117L7.15931 4.94117L6.00031 6.09917L5.29231 5.39117L6.44531 4.23317L4.49331 2.28117L2.20331 4.57117L6.92831 9.29117ZM14.7623 17.1312L17.0523 14.8412L15.1013 12.8892L13.9433 14.0412L13.2363 13.3332L14.3873 12.1752L12.3473 10.1412L10.0623 12.4252L14.7623 17.1312ZM4.97331 17.5332H1.82031V14.3792L6.21431 9.98517L0.820312 4.57217L4.49331 0.89917L9.93231 6.31817L15.1373 1.10617L18.2223 4.27917L13.0803 9.44717L18.4553 14.8602L14.7803 18.5332L9.36731 13.1392L4.97331 17.5332ZM2.82031 16.5332H4.54731L14.3673 6.71917L12.6333 4.98717L2.82031 14.8062V16.5332ZM13.5123 5.84717L12.6343 4.98717L14.3663 6.72017L13.5123 5.84717Z" fill="black"/>
</svg>
