<?xml version="1.0" encoding="UTF-8"?>
<svg version="1.1" xmlns="http://www.w3.org/2000/svg" width="512" height="512">
<path d="M0 0 C1.15721054 -0.01469078 1.15721054 -0.01469078 2.33779907 -0.02967834 C19.50724174 -0.20263632 36.06981646 -0.05030933 52.8125 4.23828125 C53.67955566 4.45790527 54.54661133 4.6775293 55.43994141 4.90380859 C67.06009884 7.93823522 77.97679258 12.0907326 88.8125 17.23828125 C89.85664063 17.72039063 90.90078125 18.2025 91.9765625 18.69921875 C107.94862592 26.32703795 122.21132514 36.90715864 135.1875 48.86328125 C135.74630859 49.37729492 136.30511719 49.89130859 136.88085938 50.42089844 C166.06829683 77.85570142 183.50468406 115.03316368 189.8125 154.23828125 C189.9875708 155.31352051 190.1626416 156.38875977 190.34301758 157.49658203 C190.84334923 161.48414463 191.0086739 165.41363584 191.05078125 169.42578125 C191.0605751 170.19725494 191.07036896 170.96872864 191.08045959 171.76358032 C191.25341757 188.93302299 191.10109058 205.49559771 186.8125 222.23828125 C186.59287598 223.10533691 186.37325195 223.97239258 186.14697266 224.86572266 C183.11254603 236.48588009 178.96004865 247.40257383 173.8125 258.23828125 C173.33039063 259.28242188 172.84828125 260.3265625 172.3515625 261.40234375 C164.7237433 277.37440717 154.14362261 291.63710639 142.1875 304.61328125 C141.41647949 305.45149414 141.41647949 305.45149414 140.62988281 306.30664062 C113.19507983 335.49407808 76.01761757 352.93046531 36.8125 359.23828125 C35.73564941 359.41407715 34.65879883 359.58987305 33.54931641 359.77099609 C29.58701415 360.26647803 25.6892124 360.41682788 21.703125 360.44140625 C20.94291046 360.44842056 20.18269592 360.45543488 19.39944458 360.46266174 C16.95373573 360.48010459 14.50826881 360.48651576 12.0625 360.48828125 C10.81113251 360.48929337 10.81113251 360.48929337 9.53448486 360.49032593 C-2.62284415 360.47467171 -14.31859034 360.09433259 -26.1875 357.23828125 C-26.96109863 357.06135742 -27.73469727 356.88443359 -28.53173828 356.70214844 C-54.67760906 350.64555345 -81.02584829 339.6775306 -101.171875 321.5390625 C-103.06657597 320.00723596 -103.06657597 320.00723596 -105.13592529 320.50071716 C-108.55785455 321.73093906 -110.77950771 324.46708381 -113.265625 327.0234375 C-113.83706238 327.59911972 -114.40849976 328.17480194 -114.99725342 328.76792908 C-116.81783802 330.60528444 -118.62770568 332.45280257 -120.4375 334.30078125 C-121.67118253 335.54951263 -122.90554978 336.79756794 -124.140625 338.04492188 C-127.16424655 341.10159145 -130.17829921 344.16741651 -133.1875 347.23828125 C-132.87026978 348.28254272 -132.87026978 348.28254272 -132.54663086 349.34790039 C-130.84316219 355.21129256 -129.65620336 360.56580955 -129.75 366.67578125 C-129.75902344 367.40168457 -129.76804688 368.12758789 -129.77734375 368.87548828 C-130.32435392 386.0721205 -140.80232471 397.31384368 -152.46801758 408.92285156 C-153.47657567 409.9371295 -154.48450687 410.95203111 -155.49186707 411.96749878 C-158.19990577 414.69330208 -160.91722995 417.40965697 -163.63702989 420.12371922 C-165.91851023 422.40208447 -168.1953474 424.68506263 -170.47226161 426.96798968 C-175.84816379 432.35787955 -181.23174838 437.74000756 -186.62036133 443.1171875 C-192.15572762 448.6410678 -197.67817879 454.17762085 -203.19439584 459.72061849 C-207.95512986 464.50358691 -212.7236718 469.27867176 -217.4984619 474.04760814 C-220.33959337 476.88538858 -223.17783531 479.72590313 -226.00861549 482.57401276 C-228.67142925 485.25241857 -231.34396726 487.92074361 -234.02391243 490.58200455 C-235.45850494 492.01122111 -236.88336363 493.450188 -238.30776978 494.88955688 C-248.34065648 504.81014996 -259.05667003 512.50157293 -273.53149414 512.70703125 C-274.36672607 512.69671875 -275.20195801 512.68640625 -276.0625 512.67578125 C-276.94091553 512.66675781 -277.81933105 512.65773438 -278.72436523 512.6484375 C-290.6568859 512.3305019 -299.22682928 508.11196547 -308.1875 500.23828125 C-312.90968208 495.21822497 -316.58211222 489.6220987 -319.1875 483.23828125 C-319.54457031 482.36945313 -319.90164063 481.500625 -320.26953125 480.60546875 C-323.22425374 469.76729519 -322.52185808 456.12593775 -317.1875 446.23828125 C-311.93575713 438.15196255 -305.69519064 431.31323521 -298.87524414 424.5378418 C-297.86343159 423.5219517 -296.85225561 422.50542727 -295.84165955 421.48832703 C-293.12540419 418.75853635 -290.3999167 416.03815059 -287.67210698 413.31991172 C-284.80238471 410.4578541 -281.94006752 407.58840492 -279.07652283 404.72016907 C-274.27131537 399.90952546 -269.45986679 395.10519244 -264.64477539 390.30444336 C-259.09504046 384.77104938 -253.55621983 379.22690659 -248.02290636 373.67709512 C-243.25026375 368.89079859 -238.47175001 364.11042272 -233.68836111 359.33486587 C-230.84077382 356.49193129 -227.99519421 353.64706661 -225.15492439 350.79681969 C-222.48501099 348.11818111 -219.80775189 345.44709993 -217.12487221 342.78145027 C-215.68441721 341.34679244 -214.25125109 339.90482762 -212.81838989 338.46258545 C-201.93701439 327.68630473 -191.25761307 320.96420047 -175.625 320.80078125 C-174.95339844 320.79062988 -174.28179687 320.78047852 -173.58984375 320.77001953 C-167.51882726 320.87363544 -161.96996622 322.48165889 -156.1875 324.23828125 C-152.3080795 320.48226407 -148.4452266 316.71025693 -144.59692383 312.92236328 C-143.2849676 311.63558388 -141.96856348 310.35332339 -140.64770508 309.07568359 C-138.75200531 307.24049246 -136.8727906 305.38975062 -134.99609375 303.53515625 C-134.10246376 302.6802359 -134.10246376 302.6802359 -133.19078064 301.80804443 C-131.35066062 300.02753881 -131.35066062 300.02753881 -129.1875 297.23828125 C-129.66084585 293.25784154 -131.79998737 290.89796703 -134.25 287.80078125 C-149.07070705 268.56079806 -158.99605583 246.44239133 -165 222.98828125 C-165.19489014 222.23385742 -165.38978027 221.47943359 -165.59057617 220.70214844 C-168.82774532 207.30834324 -169.59746109 193.94850253 -169.5625 180.23828125 C-169.56195618 179.4301297 -169.56141235 178.62197815 -169.56085205 177.78933716 C-169.51923083 164.27858859 -168.53232339 151.37992297 -165.1875 138.23828125 C-164.96787598 137.36977539 -164.74825195 136.50126953 -164.52197266 135.60644531 C-161.48747542 123.98816502 -157.33425997 113.0723285 -152.1875 102.23828125 C-151.70539063 101.19414063 -151.22328125 100.15 -150.7265625 99.07421875 C-143.0987433 83.10215533 -132.51862261 68.83945611 -120.5625 55.86328125 C-119.79147949 55.02506836 -119.79147949 55.02506836 -119.00488281 54.16992188 C-91.57007983 24.98248442 -54.39261757 7.54609719 -15.1875 1.23828125 C-14.11226074 1.06321045 -13.03702148 0.88813965 -11.92919922 0.70776367 C-7.94163662 0.20743202 -4.01214541 0.04210735 0 0 Z M-39.1875 39.23828125 C-39.87166992 39.48562012 -40.55583984 39.73295898 -41.26074219 39.98779297 C-64.97328225 48.74395345 -87.18712906 63.51132819 -103.1875 83.23828125 C-103.93515625 84.13675781 -104.6828125 85.03523438 -105.453125 85.9609375 C-127.20151703 113.0096452 -138.68879728 145.31165128 -138.5 179.98828125 C-138.49817719 180.68727539 -138.49635437 181.38626953 -138.49447632 182.10644531 C-138.42050726 198.99933935 -135.95932421 214.33970459 -130.1875 230.23828125 C-129.94016113 230.92245117 -129.69282227 231.60662109 -129.43798828 232.31152344 C-122.26982234 251.72361878 -111.42385952 270.06492356 -96.1875 284.23828125 C-91.1875 289.23828125 -91.1875 289.23828125 -89.88671875 290.71484375 C-68.69388202 313.8243453 -32.06759762 327.78807621 -1.35009766 329.4453125 C2.62208834 329.54087192 6.58958458 329.57241183 10.5625 329.55078125 C11.26149414 329.54895844 11.96048828 329.54713562 12.68066406 329.54525757 C29.5735581 329.47128851 44.91392334 327.01010546 60.8125 321.23828125 C61.49666992 320.99094238 62.18083984 320.74360352 62.88574219 320.48876953 C86.59828225 311.73260905 108.81212906 296.96523431 124.8125 277.23828125 C125.56015625 276.33980469 126.3078125 275.44132813 127.078125 274.515625 C148.82651703 247.4669173 160.31379728 215.16491122 160.125 180.48828125 C160.12317719 179.78928711 160.12135437 179.09029297 160.11947632 178.37011719 C160.04550726 161.47722315 157.58432421 146.13685791 151.8125 130.23828125 C151.56516113 129.55411133 151.31782227 128.86994141 151.06298828 128.16503906 C142.3068278 104.452499 127.53945306 82.23865219 107.8125 66.23828125 C106.91402344 65.490625 106.01554688 64.74296875 105.08984375 63.97265625 C78.04113605 42.22426422 45.73912997 30.73698397 11.0625 30.92578125 C10.01400879 30.92851547 10.01400879 30.92851547 8.94433594 30.93130493 C-7.9485581 31.00527399 -23.28892334 33.46645704 -39.1875 39.23828125 Z M-192.625 362.48828125 C-193.16576172 363.04257812 -193.70652344 363.596875 -194.26367188 364.16796875 C-195.57868209 365.51789074 -196.88412536 366.87712153 -198.1875 368.23828125 C-193.94933463 373.30451893 -189.51341037 378.03866194 -184.8125 382.67578125 C-184.17183594 383.31193359 -183.53117188 383.94808594 -182.87109375 384.60351562 C-181.31219121 386.15078457 -179.75098584 387.69564617 -178.1875 389.23828125 C-166.91670618 380.55472812 -166.91670618 380.55472812 -160.875 368.296875 C-160.56363373 363.16906182 -161.76330891 360.20313409 -165.1875 356.23828125 C-169.01934019 352.92896472 -171.86810664 351.79360003 -176.96484375 351.70703125 C-183.55448991 353.28206091 -188.10242098 357.74439661 -192.625 362.48828125 Z M-225.46704102 395.3711853 C-226.07588135 395.98047882 -226.68472168 396.58977234 -227.31201172 397.2175293 C-228.27060593 398.17108559 -228.27060593 398.17108559 -229.24856567 399.14390564 C-231.37413084 401.25992228 -233.4958555 403.37974009 -235.6171875 405.5 C-237.08823227 406.96783378 -238.55935344 408.43559099 -240.0305481 409.90327454 C-243.12095577 412.9876804 -246.2092741 416.0741616 -249.29638672 419.16186523 C-253.2514049 423.11698484 -257.21324241 427.06519496 -261.17692375 431.01163006 C-264.22067598 434.04425639 -267.25986485 437.08142438 -270.29779434 440.11988258 C-271.75621389 441.57712195 -273.21625557 443.03273975 -274.67794418 444.48670006 C-276.72481551 446.52376433 -278.76524168 448.56707929 -280.80419922 450.61206055 C-281.40899109 451.21123291 -282.01378296 451.81040527 -282.63690186 452.42773438 C-287.007587 456.83127322 -290.61471495 460.66534447 -290.625 467.17578125 C-290.46985325 471.9148092 -289.42867032 474.64671414 -286.1875 478.23828125 C-282.44751511 481.53826792 -278.76408284 481.67216831 -273.98046875 481.9296875 C-267.02194356 480.20708756 -261.41045447 473.75135057 -256.49609375 468.77392578 C-255.88045059 468.15857468 -255.26480743 467.54322357 -254.63050842 466.90922546 C-252.62388672 464.90122534 -250.62441721 462.8862654 -248.625 460.87109375 C-247.22439732 459.46675565 -245.82334851 458.06286236 -244.421875 456.65939331 C-240.75471964 452.98464321 -237.09361338 449.30392456 -233.43377686 445.62188721 C-229.68998762 441.8575495 -225.9404498 438.09894722 -222.19140625 434.33984375 C-214.85116542 426.97822649 -207.51730872 419.61028459 -200.1875 412.23828125 C-201.14625918 411.11442663 -202.10576957 409.99121284 -203.06559753 408.86827087 C-203.59984439 408.2427127 -204.13409124 407.61715452 -204.6845274 406.97264004 C-206.32703761 405.0772615 -208.02922684 403.26738334 -209.80078125 401.4921875 C-210.40857422 400.88310547 -211.01636719 400.27402344 -211.64257812 399.64648438 C-212.25552734 399.03740234 -212.86847656 398.42832031 -213.5 397.80078125 C-214.13228516 397.16462891 -214.76457031 396.52847656 -215.41601562 395.87304688 C-216.31803711 394.97295898 -216.31803711 394.97295898 -217.23828125 394.0546875 C-217.78137939 393.51271729 -218.32447754 392.97074707 -218.8840332 392.41235352 C-221.8029603 389.78318693 -223.20787941 393.12946713 -225.46704102 395.3711853 Z " fill="#000000" transform="translate(321.1875,-0.23828125)"/>
<path d="M0 0 C12.67509386 9.86461049 22.25717381 22.85371895 25 39 C26.79749523 59.42170998 22.39386658 75.59635305 10 92 C10.721875 92.25136719 11.44375 92.50273437 12.1875 92.76171875 C19.04754648 95.78204477 24.88977027 101.61354164 30 107 C30.51820313 107.46277344 31.03640625 107.92554688 31.5703125 108.40234375 C44.83174093 120.56360884 54.19278844 141.93220849 55.22436523 159.91015625 C55.34307538 163.70780942 55.37139038 167.50363687 55.37060547 171.30297852 C55.37501001 173.6929289 55.41150968 176.08107428 55.44921875 178.47070312 C55.45508291 180.0052021 55.45905498 181.53970972 55.4609375 183.07421875 C55.48249405 184.13379036 55.48249405 184.13379036 55.50448608 185.21476746 C55.45803981 190.28132576 54.26226777 193.1542627 51 197 C47.03298727 199.93343709 44.17901551 200.37762937 39.28895569 200.38768005 C38.62738148 200.39306559 37.96580727 200.39845113 37.28418535 200.40399987 C35.07476388 200.41826924 32.86594242 200.41117864 30.65649414 200.40405273 C29.06944803 200.40975687 27.48240602 200.41672129 25.89537048 200.42485046 C21.58955673 200.44279243 17.28394665 200.44161155 12.97810674 200.43590808 C9.3821365 200.43281769 5.78620546 200.43890702 2.1902408 200.44494683 C-6.29369751 200.45899388 -14.77753513 200.4574293 -23.26147461 200.44604492 C-32.01105267 200.43456347 -40.76032422 200.44863936 -49.50986189 200.4754414 C-57.02509053 200.49759967 -64.54022298 200.50423549 -72.05548197 200.49836498 C-76.54263146 200.4949945 -81.02958447 200.49741647 -85.51670647 200.51461601 C-89.73655727 200.53008514 -93.9559541 200.5261302 -98.17578697 200.50731087 C-99.72293766 200.50362486 -101.27012197 200.50673386 -102.81724167 200.51719666 C-104.932674 200.53040869 -107.04660381 200.51885992 -109.16197205 200.50120544 C-110.3445909 200.50099616 -111.52720976 200.50078688 -112.74566555 200.50057125 C-117.60996106 199.75236097 -120.78386938 197.50694795 -123.84790039 193.71020508 C-126.08672615 188.4435798 -125.47803943 182.61422266 -125.44604492 176.9753418 C-125.43766596 174.73193444 -125.46609039 172.4911942 -125.49804688 170.24804688 C-125.61404667 146.31644706 -116.7317784 124.17795915 -100 107 C-99.195625 106.13375 -98.39125 105.2675 -97.5625 104.375 C-86.74444863 94.34851336 -86.74444863 94.34851336 -80 92 C-80.60328125 91.09378906 -81.2065625 90.18757813 -81.828125 89.25390625 C-93.19302822 72.00847807 -97.95015668 55.89635189 -94.3125 35.0625 C-89.90338955 19.77758378 -80.50394761 6.56296833 -67 -2 C-45.47191644 -13.46575668 -20.68983136 -13.83421116 0 0 Z M-57.5 30.3125 C-58.84350434 32.09338765 -58.84350434 32.09338765 -60 34 C-60.40992188 34.64453125 -60.81984375 35.2890625 -61.2421875 35.953125 C-64.81933273 42.61401612 -65.05748044 49.61378165 -64 57 C-61.51688537 64.53708645 -57.79788029 70.75834742 -51 75 C-50.35546875 75.40992188 -49.7109375 75.81984375 -49.046875 76.2421875 C-42.38598388 79.81933273 -35.38621835 80.05748044 -28 79 C-20.46291355 76.51688537 -14.24165258 72.79788029 -10 66 C-9.59007812 65.35546875 -9.18015625 64.7109375 -8.7578125 64.046875 C-5.18066727 57.38598388 -4.94251956 50.38621835 -6 43 C-8.48311463 35.46291355 -12.20211971 29.24165258 -19 25 C-19.64453125 24.59007812 -20.2890625 24.18015625 -20.953125 23.7578125 C-33.10301727 17.23287035 -48.19512191 20.35628045 -57.5 30.3125 Z M-81.0078125 132.2265625 C-90.38484476 143.71444185 -94 155.26295481 -94 170 C-55.06 170 -16.12 170 24 170 C24 152.84189617 18.98684101 140.73387051 7.3515625 128.3203125 C-5.39128502 115.74680515 -19.72456109 110.47138926 -37.44042969 110.57836914 C-55.38277572 111.08836265 -69.11053124 119.03307939 -81.0078125 132.2265625 Z " fill="#000000" transform="translate(367,70)"/>
</svg>
