<svg width="21" height="23" viewBox="0 0 21 23" fill="none" xmlns="http://www.w3.org/2000/svg">
<path d="M6.40174 9.5332C7.08774 10.9302 7.81974 12.2382 7.65174 13.8472C7.38074 16.4202 4.26174 17.3882 2.26574 18.5732C0.958743 19.3502 1.44774 21.5332 3.05174 21.5332C4.99574 21.5332 6.73174 21.3782 8.48674 20.5532L11.9267 18.4362C12.4047 18.2112 13.0067 18.3072 13.5157 18.5332" stroke="black" stroke-width="1.5" stroke-linecap="round" stroke-linejoin="round"/>
<path d="M14.5256 9.5332C13.8256 10.9302 13.0776 12.2382 13.2506 13.8472C13.5266 16.4202 16.7126 17.3882 18.7496 18.5732C20.0836 19.3502 19.5846 21.5332 17.9476 21.5332C15.9616 21.5332 14.1886 21.3782 12.3976 20.5532L8.88363 18.4362C8.47363 18.2472 7.97363 18.2852 7.51562 18.4362M8.51562 3.5332C8.51562 4.06364 8.72634 4.57234 9.10141 4.94742C9.47648 5.32249 9.98519 5.5332 10.5156 5.5332C11.0461 5.5332 11.5548 5.32249 11.9298 4.94742C12.3049 4.57234 12.5156 4.06364 12.5156 3.5332C12.5156 3.00277 12.3049 2.49406 11.9298 2.11899C11.5548 1.74392 11.0461 1.5332 10.5156 1.5332C9.98519 1.5332 9.47648 1.74392 9.10141 2.11899C8.72634 2.49406 8.51562 3.00277 8.51562 3.5332Z" stroke="black" stroke-width="1.5" stroke-linecap="round" stroke-linejoin="round"/>
<path d="M1.51562 15.5332C3.96163 15.5332 5.05963 12.8282 5.40863 10.9632C5.50063 10.4752 5.64862 9.99021 5.97162 9.61421C6.53454 8.96062 7.23197 8.43631 8.01622 8.07715C8.80047 7.71799 9.65304 7.53244 10.5156 7.53321C12.3316 7.53321 13.9596 8.34021 15.0596 9.61421C15.3826 9.99021 15.5306 10.4752 15.6226 10.9622C15.9726 12.8282 17.0696 15.5332 19.5156 15.5332" stroke="black" stroke-width="1.5" stroke-linecap="round" stroke-linejoin="round"/>
</svg>
