<svg width="21" height="11" viewBox="0 0 21 11" fill="none" xmlns="http://www.w3.org/2000/svg">
<path d="M6.98568 1.36646H4.65234C4.51974 1.36646 4.39256 1.41913 4.29879 1.5129C4.20502 1.60667 4.15234 1.73385 4.15234 1.86645V9.19979C4.15234 9.26545 4.16528 9.33047 4.1904 9.39113C4.21553 9.45179 4.25236 9.50691 4.29879 9.55334C4.34522 9.59977 4.40034 9.6366 4.461 9.66173C4.52166 9.68686 4.58668 9.69979 4.65234 9.69979H6.98568C7.05134 9.69979 7.11636 9.68686 7.17702 9.66173C7.23768 9.6366 7.2928 9.59977 7.33923 9.55334C7.38566 9.50691 7.42249 9.45179 7.44762 9.39113C7.47274 9.33047 7.48568 9.26545 7.48568 9.19979V1.86645C7.48568 1.73385 7.433 1.60667 7.33923 1.5129C7.24546 1.41913 7.11829 1.36646 6.98568 1.36646ZM16.9857 1.36646H14.6523C14.5197 1.36646 14.3926 1.41913 14.2988 1.5129C14.205 1.60667 14.1523 1.73385 14.1523 1.86645V9.19979C14.1523 9.26545 14.1653 9.33047 14.1904 9.39113C14.2155 9.45179 14.2524 9.50691 14.2988 9.55334C14.3452 9.59977 14.4003 9.6366 14.461 9.66173C14.5217 9.68686 14.5867 9.69979 14.6523 9.69979H16.9857C17.0513 9.69979 17.1164 9.68686 17.177 9.66173C17.2377 9.6366 17.2928 9.59977 17.3392 9.55334C17.3857 9.50691 17.4225 9.45179 17.4476 9.39113C17.4727 9.33047 17.4857 9.26545 17.4857 9.19979V1.86645C17.4857 1.73385 17.433 1.60667 17.3392 1.5129C17.2455 1.41913 17.1183 1.36646 16.9857 1.36646Z" stroke="black" stroke-width="1.5" stroke-linecap="round" stroke-linejoin="round"/>
<path d="M7.48568 5.53308H14.1523M1.65234 7.53308V3.53308C1.65234 3.40047 1.70502 3.2733 1.79879 3.17953C1.89256 3.08576 2.01974 3.03308 2.15234 3.03308H3.65234C3.78495 3.03308 3.91213 3.08576 4.0059 3.17953C4.09967 3.2733 4.15234 3.40047 4.15234 3.53308V7.53308C4.15234 7.66569 4.09967 7.79287 4.0059 7.88663C3.91213 7.9804 3.78495 8.03308 3.65234 8.03308H2.15234C2.01974 8.03308 1.89256 7.9804 1.79879 7.88663C1.70502 7.79287 1.65234 7.66569 1.65234 7.53308ZM19.9857 7.53308V3.53308C19.9857 3.40047 19.933 3.2733 19.8392 3.17953C19.7455 3.08576 19.6183 3.03308 19.4857 3.03308H17.9857C17.8531 3.03308 17.7259 3.08576 17.6321 3.17953C17.5384 3.2733 17.4857 3.40047 17.4857 3.53308V7.53308C17.4857 7.66569 17.5384 7.79287 17.6321 7.88663C17.7259 7.9804 17.8531 8.03308 17.9857 8.03308H19.4857C19.6183 8.03308 19.7455 7.9804 19.8392 7.88663C19.933 7.79287 19.9857 7.66569 19.9857 7.53308Z" stroke="black" stroke-width="1.5" stroke-linecap="round" stroke-linejoin="round"/>
</svg>
