<svg width="21" height="19" viewBox="0 0 21 19" fill="none" xmlns="http://www.w3.org/2000/svg">
<path d="M4.0063 12.4762L4.17096 12.5136C4.43071 12.5726 4.69483 12.6103 4.9607 12.6263C4.96075 12.6263 4.96079 12.6263 4.96084 12.6263L6.52039 12.7133L6.61482 12.7185V12.8131V15.823V15.8231H6.51482C6.51508 15.9946 6.4533 16.1603 6.34089 16.2897C6.22848 16.4192 6.07303 16.5036 5.90325 16.5273C5.73347 16.5511 5.56083 16.5126 5.4172 16.419C5.27357 16.3254 5.16865 16.183 5.12182 16.0181L4.0063 12.4762ZM4.0063 12.4762L4.05267 12.6386L5.02563 16.0454L4.0063 12.4762ZM15.6148 2.09995V2.27412V14.5331V14.7332L15.4548 14.6131L13.3949 13.0671L15.6148 2.09995ZM15.6148 2.09995L15.4644 2.18776M15.6148 2.09995L15.4644 2.18776M15.4644 2.18776L13.1194 3.55676L13.1194 3.55677M15.4644 2.18776L13.1194 3.55677M13.1194 3.55677C11.7079 4.38112 10.1331 4.88654 8.50558 5.03755L8.41482 5.04597M13.1194 3.55677L8.41482 5.04597M8.41482 5.04597V5.13712M8.41482 5.04597V5.13712M8.41482 5.13712V10.9561V11.0433M8.41482 5.13712V11.0433M8.41482 11.0433L8.50119 11.0552M8.41482 11.0433L8.50119 11.0552M8.50119 11.0552C10.2714 11.2989 11.9564 11.9893 13.3948 13.0671L8.50119 11.0552ZM17.4148 5.53312V5.63312H17.5148C17.8957 5.63312 18.2728 5.70813 18.6246 5.85387C18.9764 5.99961 19.2961 6.21322 19.5654 6.48251C19.8347 6.7518 20.0483 7.07149 20.1941 7.42334C20.3398 7.77518 20.4148 8.15229 20.4148 8.53312C20.4148 8.91395 20.3398 9.29106 20.1941 9.6429C20.0483 9.99475 19.8347 10.3144 19.5654 10.5837C19.2961 10.853 18.9764 11.0666 18.6246 11.2124C18.2728 11.3581 17.8957 11.4331 17.5148 11.4331H17.4148V11.5331V14.5331C17.4148 16.0987 15.6279 16.9927 14.3748 16.0531C14.3748 16.0531 14.3748 16.0531 14.3748 16.0531L12.3148 14.5071L12.3148 14.5071C11.2009 13.672 9.90402 13.1144 8.53162 12.8805L8.41482 12.8606V12.9791V15.8231V15.8231C8.41493 16.4528 8.18743 17.0612 7.77427 17.5363C7.3611 18.0114 6.79012 18.3211 6.16658 18.4084C5.54304 18.4956 4.90897 18.3546 4.38125 18.0112C3.85353 17.6677 3.46774 17.1451 3.29499 16.5397L3.29498 16.5397L1.72498 11.0437L1.71906 11.0229L1.70514 11.0065C1.15218 10.3535 0.792319 9.55918 0.666015 8.71287C0.53971 7.86656 0.651967 7.00179 0.990166 6.21578C1.32836 5.42977 1.8791 4.75367 2.58046 4.26348C3.28182 3.77329 4.10601 3.48845 4.96037 3.44097L4.96038 3.44097L7.97837 3.27297C9.47082 3.19007 10.9223 2.75394 12.2132 2.00049L14.5572 0.632531C15.8246 -0.105687 17.4148 0.807367 17.4148 2.27412V5.53312ZM6.61482 5.25712V5.15145L6.50931 5.15727L5.05931 5.23727L5.05931 5.23727C4.35977 5.2759 3.70013 5.57537 3.2106 6.07657C2.72107 6.57777 2.43722 7.24428 2.41508 7.94453C2.39294 8.64479 2.63412 9.3279 3.09101 9.85902C3.54791 10.3901 4.18731 10.7307 4.88301 10.8134L4.88301 10.8135L4.88603 10.8137L5.05603 10.8287L5.05603 10.8288L5.05931 10.829L6.50931 10.909L6.61482 10.9148V10.8091V5.25712ZM17.5208 7.4333L17.4148 7.42696V7.53312V9.53312V9.63323L17.5149 9.63312C17.7953 9.63281 18.065 9.52545 18.2688 9.33299C18.4727 9.14052 18.5954 8.87747 18.6118 8.59759C18.6283 8.3177 18.5372 8.0421 18.3572 7.82711C18.1773 7.61211 17.922 7.47393 17.6436 7.44082L17.6437 7.44065L17.6378 7.4403L17.5208 7.4333Z" fill="black" stroke="white" stroke-width="0.2"/>
</svg>
