<svg width="23" height="23" viewBox="0 0 23 23" fill="none" xmlns="http://www.w3.org/2000/svg">
<path d="M19.5156 9.6612C19.5156 5.8292 19.5156 3.9142 18.3436 2.7232C17.1716 1.5322 15.2866 1.5332 11.5156 1.5332H9.51562C5.74463 1.5332 3.85862 1.5332 2.68762 2.7232C1.51662 3.9132 1.51563 5.8292 1.51563 9.6612C1.51563 13.4932 1.51562 15.4082 2.68762 16.5992C3.15762 17.0762 3.74163 17.3622 4.51562 17.5332" stroke="black" stroke-width="1.5" stroke-linecap="round" stroke-linejoin="round"/>
<path d="M21.5156 17.0332C21.5156 15.1582 21.5156 14.2212 21.0386 13.5632C20.8844 13.351 20.6978 13.1644 20.4856 13.0102C19.8276 12.5332 18.8906 12.5332 17.0156 12.5332H12.0156C10.1406 12.5332 9.20362 12.5332 8.54562 13.0102C8.33342 13.1644 8.14681 13.351 7.99263 13.5632C7.51563 14.2222 7.51562 15.1592 7.51562 17.0332C7.51562 18.9072 7.51563 19.8452 7.99263 20.5032C8.14711 20.7155 8.33407 20.9021 8.54663 21.0562C9.20363 21.5332 10.1406 21.5332 12.0156 21.5332H17.0156C18.8906 21.5332 19.8276 21.5332 20.4856 21.0562C20.6978 20.902 20.8844 20.7154 21.0386 20.5032C21.5156 19.8452 21.5156 18.9082 21.5156 17.0332Z" stroke="black" stroke-width="1.5" stroke-linecap="round" stroke-linejoin="round"/>
<path d="M16.0156 15.5332L16.9356 16.3262C17.3226 16.6592 17.5156 16.8262 17.5156 17.0332C17.5156 17.2402 17.3226 17.4072 16.9356 17.7402L16.0156 18.5332M13.0156 15.5332L12.0956 16.3262C11.7086 16.6592 11.5156 16.8262 11.5156 17.0332C11.5156 17.2402 11.7086 17.4072 12.0956 17.7402L13.0156 18.5332M2.01562 5.5332H19.0156" stroke="black" stroke-width="1.5" stroke-linecap="round" stroke-linejoin="round"/>
</svg>
