<svg width="21" height="21" viewBox="0 0 21 21" fill="null" xmlns="http://www.w3.org/2000/svg">
<path d="M1.01562 7.5332H20.0156M11.5156 11.5332H15.5156M11.5156 15.5332H13.5156M5.51562 4.5332H5.52462M9.51562 4.5332H9.52462M7.51562 7.5332V20.0332M1.01562 10.5332C1.01562 6.0552 1.01562 3.8152 2.40663 2.4242C3.79763 1.0332 6.03662 1.0332 10.5156 1.0332C14.9936 1.0332 17.2336 1.0332 18.6246 2.4242C20.0156 3.8152 20.0156 6.0542 20.0156 10.5332C20.0156 15.0112 20.0156 17.2512 18.6246 18.6422C17.2336 20.0332 14.9946 20.0332 10.5156 20.0332C6.03762 20.0332 3.79763 20.0332 2.40663 18.6422C1.01562 17.2512 1.01562 15.0122 1.01562 10.5332Z" stroke="#000000" fill="transparent" stroke-width="1.5" stroke-linecap="round" stroke-linejoin="round"/>
</svg>
