<svg width="209" height="150" viewBox="0 0 209 150" fill="none" xmlns="http://www.w3.org/2000/svg">
<rect width="209" height="150" fill="white"/>
<path d="M78.1006 103.824C80.4579 98.2702 85.9616 94.375 92.375 94.375H115.625C122.038 94.375 127.542 98.2702 129.899 103.824M119.5 65.3125C119.5 73.8729 112.56 80.8125 104 80.8125C95.4396 80.8125 88.5 73.8729 88.5 65.3125C88.5 56.7521 95.4396 49.8125 104 49.8125C112.56 49.8125 119.5 56.7521 119.5 65.3125ZM142.75 75C142.75 96.401 125.401 113.75 104 113.75C82.599 113.75 65.25 96.401 65.25 75C65.25 53.599 82.599 36.25 104 36.25C125.401 36.25 142.75 53.599 142.75 75Z" stroke="#B3B3B3" stroke-width="5" stroke-linecap="round" stroke-linejoin="round"/>
</svg>
