<svg width="19" height="14" viewBox="0 0 19 14" fill="none" xmlns="http://www.w3.org/2000/svg">
<path d="M2.72601 13.5805C2.2288 13.5805 1.8033 13.4147 1.44953 13.0831C1.09516 12.7508 0.917969 12.3516 0.917969 11.8855V1.7153C0.917969 1.24916 1.09516 0.850266 1.44953 0.518604C1.8033 0.186377 2.2288 0.0202637 2.72601 0.0202637H17.1903C17.6875 0.0202637 18.1133 0.186377 18.4677 0.518604C18.8215 0.850266 18.9984 1.24916 18.9984 1.7153V11.8855C18.9984 12.3516 18.8215 12.7508 18.4677 13.0831C18.1133 13.4147 17.6875 13.5805 17.1903 13.5805H2.72601ZM9.95816 7.64792L2.72601 3.41034V11.8855H17.1903V3.41034L9.95816 7.64792ZM9.95816 5.95289L17.1903 1.7153H2.72601L9.95816 5.95289ZM2.72601 3.41034V1.7153V11.8855V3.41034Z" fill="#00AFE3"/>
</svg>
