<svg width="140" height="98" viewBox="0 0 140 98" fill="none" xmlns="http://www.w3.org/2000/svg">
<path d="M108.533 80.6645V73.0221C108.533 65.8999 103.662 59.9156 97.0698 58.2188M83.6956 12.9939C89.2972 15.2613 93.2486 20.753 93.2486 27.1676C93.2486 33.5822 89.2972 39.0739 83.6956 41.3414M89.4274 80.6645C89.4274 73.5426 89.4274 69.9817 88.2639 67.1728C86.7126 63.4276 83.7371 60.452 79.9919 58.9007C77.1829 57.7372 73.622 57.7372 66.5002 57.7372H55.0366C47.9148 57.7372 44.3538 57.7372 41.5449 58.9007C37.7997 60.452 34.8242 63.4276 33.2729 67.1728C32.1094 69.9817 32.1094 73.5426 32.1094 80.6645M76.0532 27.1676C76.0532 35.6092 69.21 42.4524 60.7684 42.4524C52.3268 42.4524 45.4836 35.6092 45.4836 27.1676C45.4836 18.7261 52.3268 11.8828 60.7684 11.8828C69.21 11.8828 76.0532 18.7261 76.0532 27.1676Z" stroke="#00AFE3" stroke-width="4.74684" stroke-linecap="round" stroke-linejoin="round"/>
</svg>
