<svg width="140" height="98" viewBox="0 0 140 98" fill="none" xmlns="http://www.w3.org/2000/svg">
<path d="M98.4537 50.4776V37.8978C98.4537 32.1854 98.4537 29.3292 97.342 27.1473C96.3641 25.2281 94.8037 23.6677 92.8845 22.6898C90.7026 21.5781 87.8464 21.5781 82.134 21.5781H60.3744C54.662 21.5781 51.8057 21.5781 49.6239 22.6898C47.7047 23.6677 46.1443 25.2281 45.1664 27.1473C44.0547 29.3292 44.0547 32.1854 44.0547 37.8978V73.2572C44.0547 78.9696 44.0547 81.8258 45.1664 84.0077C46.1443 85.9269 47.7047 87.4873 49.6239 88.4652C51.8057 89.5769 54.662 89.5769 60.3744 89.5769H69.5542" stroke="#00AFE3" stroke-width="4.74684" stroke-linecap="round" stroke-linejoin="round"/>
<path d="M44.0592 79.3816C41.4631 79.2935 40.8497 78.9939 39.4286 78.2698C37.5094 77.292 35.949 75.7316 34.9711 73.8124C33.8594 71.6305 33.8594 68.7743 33.8594 63.0619V27.7025C33.8594 21.9901 33.8594 19.1339 34.9711 16.952C35.949 15.0328 37.5094 13.4724 39.4286 12.4945C41.6104 11.3828 44.4666 11.3828 50.1791 11.3828H71.9387C77.6511 11.3828 80.5073 11.3828 82.6892 12.4945C84.6084 13.4724 86.1688 15.0328 87.1467 16.952C87.8278 18.2888 88.1562 19.2378 88.2584 21.5826" stroke="#00AFE3" stroke-width="4.74684" stroke-linecap="round" stroke-linejoin="round"/>
<path d="M78.0559 52.1779H57.6562M64.4561 65.7776H57.6562M84.8557 38.5781H57.6562M105.255 89.5772L100.155 84.4773M103.555 75.9774C103.555 82.5495 98.2277 87.8772 91.6556 87.8772C85.0836 87.8772 79.7558 82.5495 79.7558 75.9774C79.7558 69.4054 85.0836 64.0777 91.6556 64.0777C98.2277 64.0777 103.555 69.4054 103.555 75.9774Z" stroke="#00AFE3" stroke-width="4.74684" stroke-linecap="round" stroke-linejoin="round"/>
</svg>
