<svg width="140" height="98" viewBox="0 0 140 98" fill="none" xmlns="http://www.w3.org/2000/svg">
<path d="M77.7392 68.6204H53.5M85.8189 52.4609H53.5" stroke="#00AFE3" stroke-width="4.74684" stroke-linecap="round" stroke-linejoin="round"/>
<path d="M101.977 69.4293C101.977 76.2169 101.974 79.6107 100.653 82.2032C99.4907 84.4837 97.6366 86.3377 95.3562 87.4997C92.7637 88.8206 89.3699 88.8206 82.5823 88.8206H56.7272C49.9396 88.8206 46.5458 88.8206 43.9532 87.4997C41.6728 86.3377 39.8187 84.4837 38.6568 82.2032C37.3358 79.6107 37.3358 76.2169 37.3358 69.4293V40.2947C37.3358 37.3304 37.3358 35.8482 37.6707 34.4534C37.9676 33.2168 38.4573 32.0346 39.1218 30.9502C39.8713 29.7272 40.9193 28.6791 43.0154 26.583L55.8954 13.703C57.9915 11.6069 59.0396 10.5589 60.2626 9.80938C61.347 9.14488 62.5292 8.65519 63.7658 8.3583C65.1606 8.02344 66.6428 8.02344 69.6071 8.02344H82.5823C89.3699 8.02344 92.7637 8.02344 95.3562 9.34439C97.6366 10.5063 99.4907 12.3604 100.653 14.6408C101.974 17.2334 101.974 24.1626 101.974 30.9502M61.575 9.11202V25.7988C61.575 28.0614 61.575 29.1926 61.1347 30.0568C60.7474 30.8169 60.1293 31.435 59.3692 31.8223C58.505 32.2626 57.3737 32.2626 55.1112 32.2626H38.4244" stroke="#00AFE3" stroke-width="4.74684" stroke-linecap="round" stroke-linejoin="round"/>
<path d="M80.6215 68.125L93.709 64.7301C94.546 64.5129 94.9646 64.4043 95.3627 64.2457C95.7163 64.1047 96.0575 63.9345 96.3827 63.7366C96.7488 63.5139 97.0871 63.2447 97.7639 62.7063L126.152 40.1219C128.932 37.9103 129.392 33.8639 127.181 31.084C124.969 28.3041 120.923 27.8435 118.143 30.055L89.7551 52.6394C89.0783 53.1778 88.7399 53.447 88.4406 53.7537C88.1747 54.0261 87.9321 54.3203 87.7153 54.6331C87.4712 54.9854 87.2713 55.3688 86.8715 56.1357L80.6215 68.125ZM80.6215 68.125L86.6483 56.5639C87.0796 55.7366 87.2952 55.323 87.6032 55.1573C87.8723 55.0126 88.1884 54.9822 88.4801 55.0731C88.8139 55.1771 89.1044 55.5422 89.6852 56.2723L94.2084 61.9577C94.7892 62.6878 95.0796 63.0529 95.106 63.4016C95.129 63.7063 95.0283 64.0074 94.8268 64.2371C94.5961 64.4999 94.1446 64.6171 93.2415 64.8513L80.6215 68.125Z" stroke="#00AFE3" stroke-width="4.74684" stroke-linecap="round" stroke-linejoin="round"/>
</svg>
