<svg width="160" height="32" viewBox="0 0 160 32" fill="none" xmlns="http://www.w3.org/2000/svg">
<path d="M15.0361 2.77884C15.3203 1.90418 16.5577 1.90418 16.8419 2.77885L19.3044 10.3576C19.4315 10.7487 19.796 11.0136 20.2073 11.0136L28.176 11.0136C29.0957 11.0136 29.4781 12.1904 28.734 12.731L22.2872 17.4149C21.9544 17.6566 21.8152 18.0852 21.9423 18.4763L24.4048 26.055C24.689 26.9297 23.6879 27.657 22.9439 27.1165L16.497 22.4326C16.1643 22.1908 15.7137 22.1908 15.381 22.4326L8.93411 27.1165C8.19008 27.657 7.18899 26.9297 7.47319 26.055L9.93566 18.4763C10.0628 18.0852 9.92353 17.6566 9.59078 17.4149L3.14394 12.731C2.3999 12.1904 2.78229 11.0136 3.70196 11.0136L11.6707 11.0136C12.082 11.0136 12.4465 10.7487 12.5736 10.3576L15.0361 2.77884Z" fill="#F9B400"/>
<path d="M46.9111 2.77884C47.1953 1.90418 48.4327 1.90418 48.7169 2.77885L51.1794 10.3576C51.3065 10.7487 51.671 11.0136 52.0823 11.0136L60.051 11.0136C60.9707 11.0136 61.3531 12.1904 60.609 12.731L54.1622 17.4149C53.8294 17.6566 53.6902 18.0852 53.8173 18.4763L56.2798 26.055C56.564 26.9297 55.5629 27.657 54.8189 27.1165L48.372 22.4326C48.0393 22.1908 47.5887 22.1908 47.256 22.4326L40.8091 27.1165C40.0651 27.657 39.064 26.9297 39.3482 26.055L41.8107 18.4763C41.9378 18.0852 41.7985 17.6566 41.4658 17.4149L35.0189 12.731C34.2749 12.1904 34.6573 11.0136 35.577 11.0136L43.5457 11.0136C43.957 11.0136 44.3215 10.7487 44.4486 10.3576L46.9111 2.77884Z" fill="#F9B400"/>
<path d="M78.7939 2.77884C79.0781 1.90418 80.3155 1.90418 80.5997 2.77885L83.0622 10.3576C83.1893 10.7487 83.5538 11.0136 83.9651 11.0136L91.9338 11.0136C92.8535 11.0136 93.2359 12.1904 92.4918 12.731L86.045 17.4149C85.7123 17.6566 85.573 18.0852 85.7001 18.4763L88.1626 26.055C88.4468 26.9297 87.4457 27.657 86.7017 27.1165L80.2548 22.4326C79.9221 22.1908 79.4715 22.1908 79.1388 22.4326L72.6919 27.1165C71.9479 27.657 70.9468 26.9297 71.231 26.055L73.6935 18.4763C73.8206 18.0852 73.6813 17.6566 73.3486 17.4149L66.9017 12.731C66.1577 12.1904 66.5401 11.0136 67.4598 11.0136L75.4285 11.0136C75.8398 11.0136 76.2043 10.7487 76.3314 10.3576L78.7939 2.77884Z" fill="#F9B400"/>
<path d="M110.669 2.77884C110.953 1.90418 112.191 1.90418 112.475 2.77885L114.937 10.3576C115.064 10.7487 115.429 11.0136 115.84 11.0136L123.809 11.0136C124.728 11.0136 125.111 12.1904 124.367 12.731L117.92 17.4149C117.587 17.6566 117.448 18.0852 117.575 18.4763L120.038 26.055C120.322 26.9297 119.321 27.657 118.577 27.1165L112.13 22.4326C111.797 22.1908 111.347 22.1908 111.014 22.4326L104.567 27.1165C103.823 27.657 102.822 26.9297 103.106 26.055L105.568 18.4763C105.696 18.0852 105.556 17.6566 105.224 17.4149L98.7767 12.731C98.0327 12.1904 98.4151 11.0136 99.3348 11.0136L107.304 11.0136C107.715 11.0136 108.079 10.7487 108.206 10.3576L110.669 2.77884Z" fill="#F9B400"/>
<path d="M142.552 2.77884C142.836 1.90418 144.073 1.90418 144.358 2.77885L146.82 10.3576C146.947 10.7487 147.312 11.0136 147.723 11.0136L155.692 11.0136C156.611 11.0136 156.994 12.1904 156.25 12.731L149.803 17.4149C149.47 17.6566 149.331 18.0852 149.458 18.4763L151.92 26.055C152.205 26.9297 151.204 27.657 150.459 27.1165L144.013 22.4326C143.68 22.1908 143.229 22.1908 142.897 22.4326L136.45 27.1165C135.706 27.657 134.705 26.9297 134.989 26.055L137.451 18.4763C137.578 18.0852 137.439 17.6566 137.106 17.4149L130.66 12.731C129.916 12.1904 130.298 11.0136 131.218 11.0136L139.186 11.0136C139.598 11.0136 139.962 10.7487 140.089 10.3576L142.552 2.77884Z" fill="#F9B400"/>
</svg>
