<svg width="331" height="50" viewBox="0 0 331 50" fill="none" xmlns="http://www.w3.org/2000/svg">
<rect width="330.777" height="49.5783" rx="24.7891" fill="#A8E4F6"/>
<path d="M106.578 14.3125H127.426V35.1606H106.578V14.3125ZM129.161 14.3125H150.009V35.1606H129.161V14.3125ZM151.743 14.3125H172.591V35.1606H151.743V14.3125ZM174.326 14.3125H195.174V35.1606H174.326V14.3125ZM196.908 14.3125H217.756V35.1606H196.908V14.3125Z" fill="#00B67A"/>
<path d="M117.005 28.3634L120.176 27.5584L121.501 31.6409L117.005 28.3634ZM124.299 23.0846H118.717L117.001 17.8281L115.284 23.0846H109.703L114.221 26.3399L112.505 31.5964L117.023 28.3411L119.803 26.3444L124.299 23.0891V23.0846ZM139.588 28.3634L142.759 27.5584L144.084 31.6409L139.588 28.3634ZM146.886 23.0846H141.304L139.588 17.8281L137.871 23.0846H132.29L136.808 26.3399L135.092 31.5964L139.61 28.3411L142.39 26.3444L146.886 23.0891V23.0846ZM162.17 28.3634L165.341 27.5584L166.666 31.6409L162.17 28.3634ZM169.468 23.0846H163.887L162.17 17.8281L160.454 23.0846H154.873L159.391 26.3399L157.674 31.5964L162.193 28.3411L164.972 26.3444L169.468 23.0891V23.0846ZM184.753 28.3634L187.924 27.5584L189.249 31.6409L184.753 28.3634ZM192.051 23.0846H186.469L184.753 17.8281L183.036 23.0846H177.455L181.973 26.3399L180.257 31.5964L184.775 28.3411L187.555 26.3444L192.051 23.0891V23.0846ZM207.335 28.3634L210.506 27.5584L211.831 31.6409L207.335 28.3634ZM214.633 23.0846H209.052L207.335 17.8281L205.619 23.0846H200.038L204.556 26.3399L202.839 31.5964L207.358 28.3411L210.137 26.3444L214.633 23.0891V23.0846Z" fill="white"/>
<path d="M249.541 21.2422H258.456V22.9026H254.945V32.2584H253.02V22.9026H249.523L249.538 21.2422H249.541ZM258.076 24.2844H259.722V25.8249H259.75C259.81 25.6064 259.912 25.3984 260.06 25.1939C260.208 24.9895 260.385 24.7956 260.603 24.6369C260.808 24.4607 261.044 24.3267 261.308 24.2245C261.558 24.1223 261.823 24.0623 262.087 24.0623C262.352 24.0623 262.44 24.0764 262.514 24.0764C262.588 24.0905 262.676 24.1046 262.75 24.1046V25.7932C262.634 25.765 262.5 25.7509 262.369 25.7333C262.239 25.7192 262.119 25.7051 261.989 25.7051C261.696 25.7051 261.417 25.765 261.15 25.8813C260.882 25.9977 260.663 26.1739 260.459 26.396C260.268 26.6322 260.106 26.9107 259.99 27.2491C259.873 27.5875 259.813 27.9824 259.813 28.423V32.2126H258.051L258.079 24.2809L258.076 24.2844ZM270.823 32.2584H269.088V31.1409H269.06C268.841 31.5534 268.517 31.8601 268.091 32.1104C267.664 32.3606 267.223 32.477 266.783 32.477C265.739 32.477 264.978 32.2267 264.506 31.6979C264.037 31.1832 263.8 30.3901 263.8 29.3466V24.2809H265.563V29.1703C265.563 29.8754 265.693 30.376 265.976 30.6544C266.24 30.947 266.621 31.0951 267.107 31.0951C267.594 31.0951 267.784 31.0352 268.031 30.9188C268.281 30.8025 268.485 30.6545 268.634 30.4641C268.796 30.2737 268.898 30.0375 268.972 29.7732C269.046 29.5088 269.074 29.2162 269.074 28.906V24.2809H270.837V32.2549H270.823V32.2584ZM273.819 29.7026C273.879 30.2173 274.069 30.5698 274.408 30.7884C274.746 30.9929 275.159 31.0986 275.627 31.0986C276.096 31.0986 275.98 31.0845 276.184 31.0563C276.389 31.0281 276.597 30.9823 276.773 30.9083C276.964 30.8342 277.112 30.732 277.228 30.5839C277.344 30.4359 277.404 30.2596 277.39 30.0411C277.376 29.8225 277.302 29.6286 277.14 29.4841C276.978 29.3396 276.787 29.2338 276.551 29.1316C276.315 29.0434 276.036 28.9694 275.73 28.913C275.419 28.8531 275.113 28.7826 274.788 28.7085C274.464 28.6345 274.143 28.5464 273.833 28.4442C273.523 28.3419 273.262 28.208 273.012 28.0176C272.776 27.8413 272.571 27.6193 272.441 27.3408C272.293 27.0623 272.222 26.738 272.222 26.329C272.222 25.9201 272.324 25.5359 272.546 25.2433C272.751 24.9507 273.029 24.7145 273.354 24.5382C273.678 24.362 274.045 24.228 274.439 24.1575C274.834 24.0835 275.219 24.0553 275.571 24.0553C275.924 24.0553 276.378 24.0976 276.745 24.1857C277.112 24.2739 277.464 24.4043 277.757 24.6123C278.067 24.8026 278.314 25.067 278.508 25.3772C278.712 25.6875 278.832 26.0682 278.888 26.5088H277.052C276.964 26.0823 276.773 25.8038 276.481 25.6557C276.17 25.5077 275.835 25.4372 275.437 25.4372C275.039 25.4372 275.159 25.4513 274.996 25.4654C274.82 25.4936 274.672 25.5253 274.514 25.5817C274.365 25.6416 274.235 25.7298 274.133 25.832C274.031 25.9342 273.971 26.0823 273.971 26.2585C273.971 26.4348 274.045 26.6393 274.189 26.7732C274.337 26.9036 274.528 27.0094 274.778 27.1116C275.014 27.1998 275.293 27.2738 275.599 27.3302C275.906 27.3866 276.23 27.4606 276.555 27.5347C276.879 27.6087 277.186 27.6968 277.496 27.799C277.806 27.9013 278.085 28.0352 278.317 28.2256C278.553 28.4019 278.758 28.6239 278.906 28.8848C279.054 29.1492 279.124 29.4876 279.124 29.8683C279.124 30.2491 279.022 30.7355 278.8 31.0739C278.582 31.3983 278.3 31.6768 277.961 31.8812C277.623 32.0857 277.228 32.2337 276.815 32.336C276.389 32.4241 275.976 32.484 275.568 32.484C275.159 32.484 274.598 32.4241 274.172 32.3078C273.745 32.1914 273.364 32.0152 273.054 31.7931C272.744 31.5569 272.497 31.2784 272.321 30.9259C272.145 30.5875 272.042 30.175 272.028 29.6921H273.805V29.7062H273.819V29.7026ZM279.622 24.2844H280.958V21.8767H282.72V24.2703H284.307V25.5782H282.72V29.8366C282.72 30.027 282.734 30.175 282.748 30.3196C282.762 30.45 282.808 30.5698 282.851 30.658C282.911 30.7461 282.999 30.8201 283.101 30.8624C283.217 30.9047 283.365 30.9365 283.57 30.9365C283.774 30.9365 283.82 30.9365 283.936 30.9224C284.053 30.9083 284.187 30.8942 284.303 30.8624V32.2267C284.113 32.2549 283.922 32.269 283.732 32.2866C283.542 32.3148 283.365 32.3148 283.161 32.3148C282.692 32.3148 282.322 32.2725 282.043 32.1844C281.765 32.0963 281.543 31.9658 281.384 31.8037C281.222 31.6274 281.12 31.4229 281.06 31.1727C281 30.9224 280.972 30.6157 280.958 30.2914V25.5923H279.622V24.2562V24.2844ZM285.54 24.2844H287.201V25.3702H287.229C287.479 24.9013 287.818 24.577 288.258 24.3726C288.699 24.1681 289.168 24.0623 289.697 24.0623C290.225 24.0623 290.87 24.1646 291.343 24.4008C291.812 24.6193 292.196 24.9154 292.503 25.3103C292.813 25.691 293.045 26.1493 293.194 26.6604C293.342 27.1716 293.43 27.7321 293.43 28.3067C293.43 28.8813 293.356 29.3642 293.225 29.8648C293.077 30.3654 292.873 30.8201 292.594 31.2009C292.316 31.5816 291.963 31.8918 291.523 32.1245C291.082 32.3606 290.581 32.477 289.996 32.477C289.411 32.477 289.481 32.4488 289.231 32.4029C288.981 32.3606 288.731 32.2866 288.498 32.1844C288.262 32.0822 288.043 31.9482 287.853 31.786C287.648 31.6239 287.486 31.4335 287.352 31.2291H287.324V35.209H285.561V24.2809H285.547L285.54 24.2844ZM291.695 28.2785C291.695 27.926 291.653 27.5734 291.547 27.235C291.459 26.8966 291.311 26.604 291.121 26.3396C290.93 26.0752 290.694 25.8708 290.43 25.7086C290.151 25.5464 289.827 25.4724 289.474 25.4724C288.741 25.4724 288.181 25.7227 287.8 26.2374C287.433 26.7521 287.243 27.443 287.243 28.2926C287.243 29.1421 287.285 29.0716 287.391 29.4101C287.497 29.7485 287.627 30.0411 287.832 30.2914C288.022 30.5416 288.258 30.732 288.537 30.8801C288.815 31.0281 289.125 31.0986 289.492 31.0986C289.859 31.0986 290.225 31.0105 290.504 30.8483C290.782 30.6862 291.004 30.4676 291.195 30.2173C291.371 29.9529 291.505 29.6603 291.575 29.3219C291.649 28.9694 291.692 28.631 291.692 28.2785H291.695ZM294.794 21.2422H296.557V22.9026H294.794V21.2422ZM294.794 24.2844H296.557V32.2584H294.794V24.2844ZM298.129 21.2422H299.891V32.2584H298.129V21.2422ZM305.267 32.4805C304.636 32.4805 304.062 32.3783 303.565 32.1562C303.064 31.9376 302.655 31.6556 302.303 31.289C301.964 30.9224 301.7 30.4676 301.524 29.9529C301.347 29.4383 301.245 28.8672 301.245 28.2644C301.245 27.6616 301.333 27.1046 301.524 26.5899C301.7 26.0752 301.964 25.6346 302.303 25.2539C302.641 24.8872 303.068 24.5946 303.565 24.3867C304.065 24.1822 304.636 24.0623 305.267 24.0623C305.898 24.0623 306.473 24.1646 306.97 24.3867C307.471 24.5911 307.879 24.8872 308.232 25.2539C308.57 25.6205 308.835 26.0752 309.011 26.5899C309.187 27.1046 309.29 27.6616 309.29 28.2644C309.29 28.8672 309.201 29.4383 309.011 29.9529C308.821 30.4676 308.57 30.9083 308.232 31.289C307.894 31.6556 307.467 31.9482 306.97 32.1562C306.469 32.3606 305.912 32.4805 305.267 32.4805ZM305.267 31.0845C305.648 31.0845 306.001 30.9964 306.283 30.8342C306.575 30.6721 306.797 30.4535 306.988 30.1891C307.178 29.9247 307.312 29.618 307.4 29.2937C307.488 28.9553 307.534 28.6169 307.534 28.2644C307.534 27.9119 307.492 27.5875 307.4 27.2526C307.312 26.9142 307.181 26.6216 306.988 26.3572C306.794 26.0929 306.561 25.8884 306.283 25.7262C305.99 25.5641 305.652 25.4759 305.267 25.4759C304.883 25.4759 304.534 25.5641 304.252 25.7262C303.959 25.8884 303.737 26.107 303.547 26.3572C303.357 26.6216 303.223 26.9142 303.135 27.2526C303.046 27.5911 303.001 27.9295 303.001 28.2644C303.001 28.5993 303.043 28.9553 303.135 29.2937C303.223 29.6321 303.353 29.9247 303.547 30.1891C303.737 30.4535 303.974 30.6721 304.252 30.8342C304.545 31.0105 304.883 31.0845 305.267 31.0845ZM309.822 24.2844H311.158V21.8767H312.92V24.2703H314.507V25.5782H312.92V29.8366C312.92 30.027 312.935 30.175 312.949 30.3196C312.963 30.45 313.009 30.5698 313.051 30.658C313.111 30.7461 313.199 30.8201 313.301 30.8624C313.418 30.9047 313.566 30.9365 313.77 30.9365C313.975 30.9365 314.02 30.9365 314.137 30.9224C314.253 30.9083 314.387 30.8942 314.503 30.8624V32.2267C314.313 32.2549 314.123 32.269 313.929 32.2866C313.738 32.3148 313.562 32.3148 313.354 32.3148C312.885 32.3148 312.515 32.2725 312.237 32.1844C311.958 32.0963 311.736 31.9658 311.577 31.8037C311.415 31.6274 311.313 31.4229 311.253 31.1727C311.193 30.9224 311.165 30.6157 311.151 30.2914V25.5923H309.815V24.2562V24.2844H309.822Z" fill="#253238"/>
<path d="M247.484 21.2376H239.418L236.936 13.5703L234.441 21.2376L226.375 21.2235L232.897 25.9684L230.401 33.6357L236.922 28.8908L243.444 33.6357L240.962 25.9684L247.484 21.2376Z" fill="#00B67A"/>
<path d="M241.52 27.7031L240.963 25.9688L236.938 28.8911L241.52 27.6996V27.7031Z" fill="#005128"/>
<path d="M17.7081 31.7891V17.2436H27.1683V19.4524H20.343V23.4013H26.6783V25.6101H20.343V29.5803H27.2251V31.7891H17.7081ZM31.2452 20.88L33.4469 24.907L35.6841 20.88H38.4043L35.1159 26.3345L38.4611 31.7891H35.7551L33.4469 27.8615L31.1599 31.7891H28.4327L31.7565 26.3345L28.5179 20.88H31.2452ZM44.1413 32.0021C43.0522 32.0021 42.1171 31.763 41.3359 31.2848C40.5594 30.8066 39.9604 30.1461 39.539 29.3033C39.1223 28.4557 38.914 27.4804 38.914 26.3771C38.914 25.2692 39.1271 24.2914 39.5532 23.4439C39.9793 22.5916 40.5807 21.9287 41.3572 21.4553C42.1384 20.977 43.0617 20.7379 44.1271 20.7379C45.0125 20.7379 45.7961 20.9013 46.4779 21.228C47.1645 21.55 47.7113 22.0069 48.1185 22.5987C48.5257 23.1858 48.7577 23.8724 48.8146 24.6584H46.3572C46.2577 24.1328 46.021 23.6948 45.6469 23.3445C45.2776 22.9893 44.7828 22.8118 44.1626 22.8118C43.637 22.8118 43.1754 22.9538 42.7776 23.2379C42.3799 23.5173 42.0698 23.9197 41.8472 24.4453C41.6294 24.9709 41.5205 25.6006 41.5205 26.3345C41.5205 27.0779 41.6294 27.7171 41.8472 28.2521C42.065 28.7824 42.3704 29.192 42.7634 29.4808C43.1611 29.7649 43.6275 29.907 44.1626 29.907C44.5414 29.907 44.8799 29.8359 45.1782 29.6939C45.4812 29.5471 45.7345 29.3364 45.9381 29.0618C46.1417 28.7872 46.2814 28.4534 46.3572 28.0604H48.8146C48.753 28.8321 48.5257 29.5163 48.1327 30.1129C47.7397 30.7048 47.2047 31.1688 46.5276 31.505C45.8505 31.8364 45.0551 32.0021 44.1413 32.0021ZM55.1553 32.0021C54.0615 32.0021 53.1169 31.7749 52.3214 31.3203C51.5307 30.861 50.9223 30.2124 50.4962 29.3743C50.07 28.5315 49.857 27.5395 49.857 26.3984C49.857 25.2763 50.07 24.2914 50.4962 23.4439C50.927 22.5916 51.5284 21.9287 52.3001 21.4553C53.0719 20.977 53.9786 20.7379 55.0203 20.7379C55.6927 20.7379 56.3271 20.8468 56.9237 21.0646C57.525 21.2777 58.0554 21.6091 58.5146 22.0589C58.9786 22.5088 59.3432 23.0817 59.6084 23.7777C59.8735 24.469 60.0061 25.2929 60.0061 26.2493V27.0376H51.0643V25.3047H57.5416C57.5369 24.8123 57.4304 24.3743 57.222 23.9908C57.0137 23.6025 56.7225 23.2971 56.3484 23.0746C55.9791 22.852 55.5482 22.7408 55.0558 22.7408C54.5303 22.7408 54.0686 22.8686 53.6709 23.1243C53.2732 23.3752 52.963 23.7067 52.7405 24.1186C52.5227 24.5258 52.4114 24.9732 52.4067 25.4609V26.9737C52.4067 27.6082 52.5227 28.1527 52.7547 28.6072C52.9867 29.0571 53.311 29.4027 53.7277 29.6442C54.1444 29.8809 54.6321 29.9993 55.1908 29.9993C55.5648 29.9993 55.9034 29.9472 56.2064 29.843C56.5094 29.7341 56.7722 29.5755 56.9947 29.3672C57.2173 29.1589 57.3854 28.9008 57.499 28.593L59.8996 28.8629C59.7481 29.4974 59.4592 30.0514 59.0331 30.5249C58.6117 30.9936 58.0719 31.3582 57.4138 31.6186C56.7556 31.8743 56.0028 32.0021 55.1553 32.0021ZM64.1522 17.2436V31.7891H61.5812V17.2436H64.1522ZM68.767 17.2436V31.7891H66.196V17.2436H68.767ZM75.6404 32.0021C74.5467 32.0021 73.6021 31.7749 72.8066 31.3203C72.0159 30.861 71.4075 30.2124 70.9813 29.3743C70.5552 28.5315 70.3421 27.5395 70.3421 26.3984C70.3421 25.2763 70.5552 24.2914 70.9813 23.4439C71.4122 22.5916 72.0135 21.9287 72.7853 21.4553C73.5571 20.977 74.4638 20.7379 75.5055 20.7379C76.1778 20.7379 76.8123 20.8468 77.4089 21.0646C78.0102 21.2777 78.5405 21.6091 78.9998 22.0589C79.4638 22.5088 79.8284 23.0817 80.0935 23.7777C80.3587 24.469 80.4913 25.2929 80.4913 26.2493V27.0376H71.5495V25.3047H78.0268C78.022 24.8123 77.9155 24.3743 77.7072 23.9908C77.4988 23.6025 77.2076 23.2971 76.8336 23.0746C76.4643 22.852 76.0334 22.7408 75.541 22.7408C75.0154 22.7408 74.5538 22.8686 74.156 23.1243C73.7583 23.3752 73.4482 23.7067 73.2256 24.1186C73.0078 24.5258 72.8966 24.9732 72.8918 25.4609V26.9737C72.8918 27.6082 73.0078 28.1527 73.2398 28.6072C73.4719 29.0571 73.7962 29.4027 74.2129 29.6442C74.6295 29.8809 75.1172 29.9993 75.6759 29.9993C76.05 29.9993 76.3885 29.9472 76.6916 29.843C76.9946 29.7341 77.2574 29.5755 77.4799 29.3672C77.7024 29.1589 77.8705 28.9008 77.9842 28.593L80.3847 28.8629C80.2332 29.4974 79.9444 30.0514 79.5183 30.5249C79.0969 30.9936 78.5571 31.3582 77.8989 31.6186C77.2408 31.8743 76.488 32.0021 75.6404 32.0021ZM84.6374 25.397V31.7891H82.0663V20.88H84.5237V22.7337H84.6516C84.9025 22.1229 85.3026 21.6375 85.8518 21.2777C86.4058 20.9179 87.09 20.7379 87.9044 20.7379C88.6572 20.7379 89.313 20.8989 89.8717 21.2209C90.4352 21.5429 90.8708 22.0092 91.1786 22.62C91.4911 23.2308 91.6449 23.9718 91.6402 24.843V31.7891H89.0692V25.2408C89.0692 24.5116 88.8798 23.9411 88.501 23.5291C88.1269 23.1172 87.6085 22.9112 86.9456 22.9112C86.4958 22.9112 86.0957 23.0107 85.7453 23.2095C85.3997 23.4036 85.1274 23.6854 84.9286 24.0547C84.7344 24.424 84.6374 24.8714 84.6374 25.397ZM99.1013 20.88V22.8686H92.83V20.88H99.1013ZM94.3783 18.2663H96.9493V28.5078C96.9493 28.8535 97.0014 29.1186 97.1055 29.3033C97.2144 29.4832 97.3565 29.6063 97.5317 29.6726C97.7069 29.7389 97.901 29.772 98.1141 29.772C98.275 29.772 98.4218 29.7602 98.5544 29.7365C98.6917 29.7128 98.7959 29.6915 98.8669 29.6726L99.3001 31.6825C99.1628 31.7299 98.9663 31.782 98.7107 31.8388C98.4597 31.8956 98.1519 31.9287 97.7874 31.9382C97.1434 31.9571 96.5634 31.8601 96.0473 31.647C95.5312 31.4292 95.1216 31.093 94.8186 30.6385C94.5203 30.1839 94.3735 29.6158 94.3783 28.9339V18.2663Z" fill="#253238"/>
</svg>
