<svg width="17" height="17" viewBox="0 0 17 17" fill="none" xmlns="http://www.w3.org/2000/svg">
<path d="M12.7603 1.57003C13.4929 0.81853 14.7032 0.808809 15.4478 1.54845C16.1721 2.26782 16.1856 3.42995 15.4782 4.16571L13.3684 6.36013C13.2031 6.53213 13.1204 6.61813 13.0694 6.71886C13.0243 6.80803 12.9975 6.9052 12.9904 7.00474C12.9825 7.11719 13.0094 7.23306 13.0633 7.4648L14.3752 13.1116C14.4305 13.3495 14.4581 13.4684 14.4492 13.5834C14.4413 13.6853 14.4127 13.7845 14.365 13.875C14.3112 13.9772 14.2243 14.0635 14.0505 14.2361L13.769 14.5158C13.3088 14.9729 13.0787 15.2015 12.8431 15.2428C12.6375 15.279 12.4259 15.2294 12.2582 15.1057C12.0662 14.9641 11.9633 14.6574 11.7575 14.0441L10.2315 9.49709L7.69148 12.02C7.53987 12.1706 7.46406 12.2459 7.41335 12.3346C7.36842 12.4131 7.33807 12.499 7.32375 12.5883C7.30758 12.689 7.31942 12.7948 7.3431 13.0065L7.48258 14.2534C7.50626 14.4651 7.5181 14.5709 7.50193 14.6716C7.4876 14.7608 7.45725 14.8468 7.41233 14.9253C7.36162 15.014 7.28581 15.0893 7.13419 15.2399L6.98423 15.3888C6.62505 15.7456 6.44546 15.924 6.24588 15.9756C6.07083 16.0209 5.88525 16.0027 5.72254 15.9242C5.53705 15.8346 5.39616 15.6247 5.1144 15.2049L3.9236 13.4308C3.87326 13.3558 3.84809 13.3183 3.81887 13.2843C3.79291 13.2541 3.76459 13.2259 3.73418 13.2001C3.69993 13.1711 3.66218 13.1461 3.58667 13.0961L1.80048 11.9134C1.37783 11.6335 1.1665 11.4936 1.07636 11.3093C0.997299 11.1477 0.978922 10.9634 1.02454 10.7895C1.07655 10.5913 1.25615 10.4129 1.61533 10.0561L1.76529 9.90717C1.91691 9.75658 1.99272 9.68128 2.08199 9.63091C2.16108 9.58629 2.2476 9.55615 2.33742 9.54192C2.43881 9.52586 2.54536 9.53762 2.75847 9.56114L4.01385 9.69968C4.22696 9.7232 4.33351 9.73496 4.4349 9.7189C4.52473 9.70467 4.61124 9.67452 4.69033 9.6299C4.77961 9.57953 4.85542 9.50424 5.00703 9.35364L7.54706 6.83074L2.96917 5.31507C2.3517 5.11063 2.04297 5.00842 1.90038 4.81769C1.77587 4.65114 1.72593 4.441 1.7623 4.23673C1.80396 4.0028 2.03408 3.77423 2.49431 3.31711L2.77583 3.03749C2.94962 2.86487 3.03652 2.77855 3.13947 2.72509C3.23059 2.67777 3.33044 2.64933 3.43296 2.64149C3.54879 2.63263 3.66853 2.66007 3.90802 2.71497L9.57157 4.01313C9.80691 4.06707 9.92458 4.09404 10.0382 4.08602C10.1479 4.07827 10.2546 4.04695 10.3509 3.99422C10.4506 3.93961 10.5346 3.85344 10.7026 3.68108L12.7603 1.57003Z" stroke="black" stroke-linecap="round" stroke-linejoin="round"/>
</svg>
