<svg xmlns="http://www.w3.org/2000/svg" fill="none" viewBox="0.9 0.87 15.94 16">
<path d="M16.7217 8.51527L9.22171 1.01527C9.12803 0.922144 9.00131 0.869873 8.86921 0.869873C8.73712 0.869873 8.61039 0.922144 8.51671 1.01527L1.01671 8.51527C0.9348 8.61092 0.891997 8.73396 0.896857 8.8598C0.901718 8.98563 0.953884 9.105 1.04293 9.19405C1.13198 9.2831 1.25135 9.33526 1.37719 9.34013C1.50302 9.34499 1.62606 9.30218 1.72171 9.22027L8.86671 2.07527L16.0117 9.22527C16.1074 9.30718 16.2304 9.34999 16.3562 9.34513C16.4821 9.34026 16.6014 9.2881 16.6905 9.19905C16.7795 9.11 16.8317 8.99063 16.8366 8.8648C16.8414 8.73896 16.7986 8.61592 16.7167 8.52027L16.7217 8.51527Z" fill="black"/>
<path d="M13.8672 15.8702H11.3672V10.8702H6.36719V15.8702H3.86719V8.87024L2.86719 9.87024V15.8702C2.86719 16.1355 2.97254 16.3898 3.16008 16.5774C3.34762 16.7649 3.60197 16.8702 3.86719 16.8702H7.36719V11.8702H10.3672V16.8702H13.8672C14.1324 16.8702 14.3868 16.7649 14.5743 16.5774C14.7618 16.3898 14.8672 16.1355 14.8672 15.8702V9.75024L13.8672 8.75024V15.8702Z" fill="black"/>
</svg>