<svg width="36" height="36" viewBox="0 0 36 36" fill="none" xmlns="http://www.w3.org/2000/svg">
<circle cx="17.6526" cy="17.8551" r="17.4992" fill="#282828"/>
<path d="M21.6734 9.46045H13.3964C11.1107 9.46045 9.25787 11.3133 9.25787 13.599V21.876C9.25787 24.1616 11.1107 26.0145 13.3964 26.0145H21.6734C23.959 26.0145 25.8119 24.1616 25.8119 21.876V13.599C25.8119 11.3133 23.959 9.46045 21.6734 9.46045Z" stroke="white" stroke-width="1.97964" stroke-linecap="round" stroke-linejoin="round"/>
<path d="M22.0879 13.1851H22.0962M20.8464 17.216C20.9485 17.9048 20.8309 18.6083 20.5101 19.2265C20.1894 19.8446 19.6819 20.3458 19.0599 20.6589C18.4378 20.972 17.7329 21.081 17.0454 20.9704C16.3578 20.8597 15.7227 20.5351 15.2303 20.0427C14.7379 19.5503 14.4132 18.9151 14.3026 18.2276C14.192 17.5401 14.301 16.8351 14.614 16.2131C14.9271 15.5911 15.4284 15.0836 16.0465 14.7629C16.6646 14.4421 17.3682 14.3245 18.057 14.4266C18.7597 14.5308 19.4102 14.8582 19.9125 15.3605C20.4147 15.8628 20.7422 16.5133 20.8464 17.216Z" stroke="white" stroke-width="1.97964" stroke-linecap="round" stroke-linejoin="round"/>
</svg>
