<svg width="103" height="20" viewBox="0 0 103 20" fill="none" xmlns="http://www.w3.org/2000/svg">
<path d="M7.65361 19.0348C11.6376 15.0536 15.6105 11.5053 15.2245 7.02505C14.8854 3.07693 11.5631 -0.0137394 7.59847 4.59349e-05C3.39946 0.0110742 0 3.42156 0 7.62609C0 11.8279 3.79372 15.2356 7.59571 19.0348C7.61225 19.0514 7.63982 19.0514 7.65361 19.0348Z" fill="url(#paint0_linear_7808_9920)"/>
<path d="M7.61636 11.2074C9.5791 11.2074 11.1702 10.5174 11.1702 9.6662C11.1702 8.81502 9.5791 8.125 7.61636 8.125C5.65362 8.125 4.0625 8.81502 4.0625 9.6662C4.0625 10.5174 5.65362 11.2074 7.61636 11.2074Z" fill="white"/>
<path d="M7.65325 7.12682C8.92013 7.12682 9.94713 6.09981 9.94713 4.83294C9.94713 3.56607 8.92013 2.53906 7.65325 2.53906C6.38638 2.53906 5.35938 3.56607 5.35938 4.83294C5.35938 6.09981 6.38638 7.12682 7.65325 7.12682Z" fill="white"/>
<path d="M18.9688 1.11719H22.4454V17.6871H18.9688V1.11719Z" fill="#253238"/>
<path d="M24.0547 12.1235C24.0547 8.62474 26.5857 6.1875 29.952 6.1875C33.2964 6.1875 35.8494 8.6275 35.8494 12.1235C35.8494 15.6222 33.2964 18.0594 29.952 18.0594C26.5857 18.0594 24.0547 15.6194 24.0547 12.1235ZM32.5685 12.1235C32.5685 10.4665 31.5567 9.22303 29.9493 9.22303C28.3419 9.22303 27.3301 10.4885 27.3301 12.1235C27.3301 13.7584 28.3419 15.0239 29.9493 15.0239C31.5567 15.0239 32.5685 13.7556 32.5685 12.1235Z" fill="#253238"/>
<path d="M47.9322 14.4697C47.185 16.7939 45.0069 18.0594 42.6304 18.0594C39.286 18.0594 36.7109 15.6194 36.7109 12.1235C36.7109 8.62474 39.286 6.1875 42.5421 6.1875C44.9187 6.1875 47.0086 7.45299 47.7557 9.7772L44.9187 10.9048C44.4555 9.73033 43.5319 9.22578 42.5862 9.22578C41.0892 9.22578 39.9891 10.4692 39.9891 12.1262C39.9891 13.7832 41.0892 15.0266 42.6745 15.0266C43.6201 15.0266 44.632 14.5193 45.0952 13.3476L47.9322 14.4697Z" fill="#253238"/>
<path d="M61.1444 6.55143V17.69H57.9765V16.0798C57.1411 17.2764 55.7984 18.0594 53.9953 18.0594C50.7392 18.0594 48.5391 15.6194 48.5391 12.1235C48.5391 8.64956 50.7392 6.1875 53.9953 6.1875C55.7984 6.1875 57.1411 6.97051 57.9765 8.16707V6.55695H61.1444V6.55143ZM57.6677 12.1207C57.6677 10.3948 56.4794 9.12929 54.8086 9.12929C53.1351 9.12929 51.9468 10.3948 51.9468 12.1207C51.9468 13.8687 53.1351 15.1121 54.8086 15.1121C56.4794 15.1121 57.6677 13.8466 57.6677 12.1207Z" fill="#253238"/>
<path d="M63.5 1.11719H66.9767V17.6871H63.5V1.11719Z" fill="#253238"/>
<path d="M69 2.89086C69 1.71635 69.8133 0.726562 71.0457 0.726562C72.2781 0.726562 73.0915 1.71635 73.0915 2.89086C73.0915 4.06537 72.2781 5.03034 71.0457 5.03034C69.8133 5.03034 69 4.06261 69 2.89086ZM69.3308 6.54948H72.7854V17.688H69.3308V6.54948Z" fill="#253238"/>
<path d="M74.3203 14.2878L77.0057 13.6895C77.3807 14.7702 77.9955 15.4374 79.1617 15.4374C80.1074 15.4374 80.7691 15.0928 80.7691 14.4256C80.7691 13.7584 80.0881 13.5047 79.0542 13.3669L78.5496 13.298C76.2172 13.0002 74.7863 11.7568 74.7863 9.75514C74.7863 7.47781 76.5453 6.1875 79.2086 6.1875C81.4528 6.1875 83.3442 7.10836 83.8515 9.61729L81.1882 10.1935C80.9235 9.29747 80.3307 8.83704 79.4292 8.83704C78.7702 8.83704 78.0865 9.09069 78.0865 9.7579C78.0865 10.5161 79.0762 10.7946 80.1322 10.9076L80.7057 10.9765C82.8176 11.2054 84.072 12.5177 84.072 14.4063C84.072 16.9593 81.7396 18.0649 79.2748 18.0649C76.5866 18.0622 74.7394 16.7278 74.3203 14.2878Z" fill="#253238"/>
<path d="M92.7643 9.68772H90.2333V17.697H86.867V9.68772H84.7109V6.55845H86.867V2.96875H90.2333V6.55845H92.7643V9.68772Z" fill="#253238"/>
<path d="M93.25 14.2878L95.9354 13.6895C96.3103 14.7702 96.9252 15.4374 98.0914 15.4374C99.0371 15.4374 99.6988 15.0928 99.6988 14.4256C99.6988 13.7584 99.0178 13.5047 97.9839 13.3669L97.4793 13.298C95.1469 13.0002 93.7159 11.7568 93.7159 9.75514C93.7159 7.47781 95.4749 6.1875 98.1383 6.1875C100.383 6.1875 102.274 7.10836 102.781 9.61729L100.118 10.1935C99.8532 9.29747 99.2604 8.83704 98.3588 8.83704C97.6999 8.83704 97.0162 9.09069 97.0162 9.7579C97.0162 10.5161 98.0059 10.7946 99.0619 10.9076L99.6354 10.9765C101.747 11.2054 103.002 12.5177 103.002 14.4063C103.002 16.9593 100.669 18.0649 98.2044 18.0649C95.5163 18.0622 93.6691 16.7278 93.25 14.2878Z" fill="#253238"/>
<defs>
<linearGradient id="paint0_linear_7808_9920" x1="1.59116" y1="12.4194" x2="14.7805" y2="4.80451" gradientUnits="userSpaceOnUse">
<stop offset="2.49201e-07" stop-color="#2E81C4"/>
<stop offset="0.107" stop-color="#308FCD"/>
<stop offset="0.3876" stop-color="#36B1E3"/>
<stop offset="0.5231" stop-color="#3AC0EC"/>
</linearGradient>
</defs>
</svg>
