<svg width="573" height="252" viewBox="0 0 573 252" fill="none" xmlns="http://www.w3.org/2000/svg">
<path d="M0 149.97L14.62 164.05L140.85 28.3L195.84 78.61H233.18V40.15H247.85V78.87H337.49V57.75H266.36V20.39H212.88V58.48H203.62L139.64 0L0 149.97Z" fill="#03AEE2"/>
<path d="M328.597 244.18H78.6969C55.8669 244.18 37.2969 225.61 37.2969 202.78V113.85C37.2969 108.05 41.9969 103.34 47.8069 103.34C53.6069 103.34 58.3169 108.04 58.3169 113.85V202.78C58.3169 214.02 67.4669 223.17 78.7069 223.17H328.607C334.407 223.17 339.117 227.87 339.117 233.68C339.117 239.49 334.397 244.18 328.597 244.18Z" fill="#03AEE2"/>
<path d="M85.7651 190.098V101.948H105.109V190.098H85.7651ZM148.727 192.057C129.996 192.057 115.916 179.079 115.916 160.47C115.916 141.86 129.996 128.883 148.727 128.883C167.337 128.883 181.539 141.86 181.539 160.47C181.539 179.079 167.337 192.057 148.727 192.057ZM148.727 175.896C157.665 175.896 163.297 169.162 163.297 160.47C163.297 151.655 157.665 145.044 148.727 145.044C139.79 145.044 134.158 151.777 134.158 160.47C134.158 169.162 139.79 175.896 148.727 175.896ZM234.776 166.958L250.57 172.957C246.407 185.323 234.287 192.057 221.064 192.057C202.455 192.057 188.131 179.079 188.131 160.47C188.131 141.86 202.455 128.883 220.575 128.883C233.797 128.883 245.428 135.616 249.59 147.982L233.797 153.981C231.226 147.737 226.084 145.044 220.819 145.044C212.494 145.044 206.373 151.655 206.373 160.47C206.373 169.285 212.494 175.896 221.309 175.896C226.574 175.896 232.205 173.202 234.776 166.958ZM308.324 130.842H325.954V190.098H308.324V181.528C303.672 187.894 296.204 192.057 286.164 192.057C268.045 192.057 255.802 179.079 255.802 160.47C255.802 141.983 268.045 128.883 286.164 128.883C296.204 128.883 303.672 133.045 308.324 139.412V130.842ZM290.694 176.386C299.999 176.386 306.61 169.652 306.61 160.47C306.61 151.287 299.999 144.554 290.694 144.554C281.39 144.554 274.778 151.287 274.778 160.47C274.778 169.774 281.39 176.386 290.694 176.386ZM340.907 190.098V101.948H360.251V190.098H340.907ZM384.77 122.761C377.914 122.761 373.384 117.619 373.384 111.375C373.384 105.131 377.914 99.8669 384.77 99.8669C391.626 99.8669 396.156 105.131 396.156 111.375C396.156 117.619 391.626 122.761 384.77 122.761ZM375.221 190.098V130.842H394.442V190.098H375.221ZM432.429 192.057C417.492 192.057 407.208 184.956 404.882 171.978L419.818 168.795C421.9 174.549 425.328 178.1 431.817 178.1C437.081 178.1 440.754 176.263 440.754 172.713C440.754 169.162 436.959 167.815 431.204 167.081L428.388 166.714C415.411 165.122 407.453 158.511 407.453 147.859C407.453 135.739 417.247 128.883 432.061 128.883C444.549 128.883 455.078 133.78 457.894 147.125L443.08 150.186C441.611 145.411 438.305 142.962 433.286 142.962C429.613 142.962 425.817 144.309 425.817 147.859C425.817 151.9 431.327 153.369 437.203 153.981L440.387 154.348C452.14 155.572 459.118 162.551 459.118 172.59C459.118 186.18 446.141 192.057 432.429 192.057ZM509.329 130.842V147.492H495.249V190.098H476.518V147.492H464.52V130.842H476.518V111.743H495.249V130.842H509.329ZM541.348 192.057C526.412 192.057 516.128 184.956 513.801 171.978L528.738 168.795C530.819 174.549 534.247 178.1 540.736 178.1C546 178.1 549.673 176.263 549.673 172.713C549.673 169.162 545.878 167.815 540.124 167.081L537.308 166.714C524.33 165.122 516.372 158.511 516.372 147.859C516.372 135.739 526.167 128.883 540.981 128.883C553.469 128.883 563.998 133.78 566.813 147.125L551.999 150.186C550.53 145.411 547.225 142.962 542.205 142.962C538.532 142.962 534.737 144.309 534.737 147.859C534.737 151.9 540.246 153.369 546.123 153.981L549.306 154.348C561.059 155.572 568.038 162.551 568.038 172.59C568.038 186.18 555.06 192.057 541.348 192.057Z" fill="#3F4A4D"/>
<path d="M376.539 240.281L370.177 229.216H365.151V240.281H357.636V207.085H371.099C378.891 207.085 384.608 210.912 384.608 218.105C384.608 222.992 381.934 226.357 377.784 228.017L384.838 240.281H376.539ZM365.151 213.356V222.946H371.099C374.787 222.946 376.908 221.286 376.908 218.105C376.908 214.969 374.787 213.356 371.099 213.356H365.151ZM399.564 241.019C392.51 241.019 387.208 236.132 387.208 229.124C387.208 222.116 392.51 217.229 399.564 217.229C406.573 217.229 411.921 222.116 411.921 229.124C411.921 236.132 406.573 241.019 399.564 241.019ZM399.564 234.933C402.93 234.933 405.051 232.397 405.051 229.124C405.051 225.804 402.93 223.314 399.564 223.314C396.199 223.314 394.078 225.85 394.078 229.124C394.078 232.397 396.199 234.933 399.564 234.933ZM426.759 241.019C419.705 241.019 414.403 236.132 414.403 229.124C414.403 222.116 419.705 217.229 426.759 217.229C433.767 217.229 439.116 222.116 439.116 229.124C439.116 236.132 433.767 241.019 426.759 241.019ZM426.759 234.933C430.125 234.933 432.246 232.397 432.246 229.124C432.246 225.804 430.125 223.314 426.759 223.314C423.394 223.314 421.273 225.85 421.273 229.124C421.273 232.397 423.394 234.933 426.759 234.933ZM456.167 213.171C453.77 213.171 452.525 214.969 452.525 217.367V217.966H458.104V224.237H452.525V240.281H445.471V224.237H441.045V217.966H445.471V217.367C445.471 211.604 448.514 206.348 455.568 206.348C457.043 206.348 458.427 206.578 459.81 207.085L458.15 213.678C457.643 213.402 456.951 213.171 456.167 213.171ZM465.762 214.923C463.18 214.923 461.475 212.987 461.475 210.636C461.475 208.284 463.18 206.302 465.762 206.302C468.344 206.302 470.05 208.284 470.05 210.636C470.05 212.987 468.344 214.923 465.762 214.923ZM462.166 240.281V217.966H469.405V240.281H462.166ZM488.874 217.229C494.406 217.229 498.141 221.101 498.141 227.648V240.281H490.856V228.755C490.856 225.251 489.243 223.407 486.707 223.407C483.94 223.407 482.373 225.528 482.373 228.939V240.281H475.088V217.966H481.727V221.055C483.203 218.612 485.554 217.229 488.874 217.229ZM521.668 217.966H528.307V238.852C528.307 246.967 521.668 251.162 514.337 251.162C508.85 251.162 504.286 248.58 502.303 244.385L507.329 241.849C508.758 243.831 511.017 245.445 514.014 245.445C517.795 245.445 521.068 243.001 521.068 238.76V237.838C519.316 239.774 516.734 241.019 513.369 241.019C506.545 241.019 501.888 236.132 501.888 229.124C501.888 222.162 506.545 217.229 513.369 217.229C517.149 217.229 519.916 218.796 521.668 221.148V217.966ZM515.074 235.117C518.578 235.117 521.068 232.582 521.068 229.124C521.068 225.666 518.578 223.13 515.074 223.13C511.57 223.13 509.081 225.666 509.081 229.124C509.081 232.628 511.57 235.117 515.074 235.117Z" fill="#4F4D4C"/>
</svg>
